<svg width="152" height="60" viewBox="0 0 152 60" fill="none" xmlns="http://www.w3.org/2000/svg">
<circle cx="121.5" cy="30" r="30" fill="white"/>
<path d="M134.884 29.116L126.134 20.366C125.898 20.1383 125.582 20.0123 125.255 20.0152C124.927 20.018 124.613 20.1495 124.381 20.3813C124.15 20.613 124.018 20.9265 124.015 21.2543C124.013 21.582 124.139 21.8978 124.366 22.1335L130.983 28.7498H109C108.668 28.7498 108.351 28.8815 108.116 29.1159C107.882 29.3503 107.75 29.6683 107.75 29.9998C107.75 30.3313 107.882 30.6492 108.116 30.8837C108.351 31.1181 108.668 31.2498 109 31.2498H130.983L124.366 37.866C124.247 37.9813 124.152 38.1193 124.086 38.2718C124.021 38.4243 123.986 38.5883 123.985 38.7543C123.983 38.9202 124.015 39.0848 124.078 39.2385C124.141 39.3921 124.233 39.5317 124.351 39.649C124.468 39.7664 124.608 39.8592 124.761 39.9221C124.915 39.9849 125.08 40.0165 125.246 40.0151C125.411 40.0136 125.576 39.9792 125.728 39.9137C125.881 39.8481 126.018 39.7529 126.134 39.6335L134.884 30.8835C135.118 30.6491 135.25 30.3312 135.25 29.9998C135.25 29.6683 135.118 29.3504 134.884 29.116Z" fill="url(#paint0_linear_696_1539)"/>
<circle cx="30" cy="30" r="28.875" transform="matrix(-1 0 0 1 60 0)" stroke="white" stroke-width="2.25"/>
<path d="M16.6162 29.116L25.3662 20.366C25.602 20.1383 25.9178 20.0123 26.2455 20.0152C26.5732 20.018 26.8868 20.1495 27.1185 20.3813C27.3503 20.613 27.4817 20.9265 27.4846 21.2543C27.4874 21.582 27.3614 21.8978 27.1337 22.1335L20.5175 28.7498H42.5C42.8315 28.7498 43.1495 28.8815 43.3839 29.1159C43.6183 29.3503 43.75 29.6683 43.75 29.9998C43.75 30.3313 43.6183 30.6492 43.3839 30.8837C43.1495 31.1181 42.8315 31.2498 42.5 31.2498H20.5175L27.1337 37.866C27.2531 37.9813 27.3484 38.1193 27.4139 38.2718C27.4794 38.4243 27.5139 38.5883 27.5153 38.7543C27.5168 38.9202 27.4851 39.0848 27.4223 39.2385C27.3594 39.3921 27.2666 39.5317 27.1492 39.649C27.0319 39.7664 26.8923 39.8592 26.7387 39.9221C26.5851 39.9849 26.4205 40.0165 26.2545 40.0151C26.0885 40.0136 25.9245 39.9792 25.772 39.9137C25.6195 39.8481 25.4816 39.7529 25.3662 39.6335L16.6162 30.8835C16.3819 30.6491 16.2503 30.3312 16.2503 29.9998C16.2503 29.6683 16.3819 29.3504 16.6162 29.116Z" fill="white"/>
<defs>
<linearGradient id="paint0_linear_696_1539" x1="121.5" y1="40.0151" x2="121.5" y2="20.0151" gradientUnits="userSpaceOnUse">
<stop stop-color="#000E38"/>
<stop offset="1" stop-color="#3F186A"/>
</linearGradient>
</defs>
</svg>
