<svg width="316" height="80" viewBox="0 0 316 80" fill="none" xmlns="http://www.w3.org/2000/svg">
<circle cx="40" cy="40" r="40" fill="white"/>
<path d="M53.0833 39.3368C54.244 40.0127 54.244 41.6895 53.0833 42.3655L35.537 52.5838C34.3687 53.2641 32.9027 52.4214 32.9027 51.0694L32.9027 30.6328C32.9027 29.2809 34.3687 28.4381 35.537 29.1185L53.0833 39.3368Z" fill="black"/>
<path d="M101.827 48V30.96H109.051C109.835 30.96 110.555 31.12 111.211 31.44C111.867 31.76 112.435 32.192 112.915 32.736C113.411 33.28 113.795 33.888 114.067 34.56C114.339 35.232 114.475 35.92 114.475 36.624C114.475 37.584 114.251 38.496 113.803 39.36C113.355 40.224 112.739 40.928 111.955 41.472C111.171 42.016 110.243 42.288 109.171 42.288H105.139V48H101.827ZM105.139 39.384H108.979C109.379 39.384 109.739 39.272 110.059 39.048C110.379 38.824 110.635 38.504 110.827 38.088C111.019 37.656 111.115 37.168 111.115 36.624C111.115 36.032 111.003 35.528 110.779 35.112C110.571 34.696 110.291 34.384 109.939 34.176C109.603 33.968 109.235 33.864 108.835 33.864H105.139V39.384ZM116.444 30.48H119.66V43.968C119.66 44.544 119.756 44.936 119.948 45.144C120.14 45.336 120.404 45.432 120.74 45.432C120.996 45.432 121.26 45.4 121.532 45.336C121.804 45.272 122.044 45.192 122.252 45.096L122.684 47.544C122.252 47.752 121.748 47.912 121.172 48.024C120.596 48.136 120.076 48.192 119.612 48.192C118.604 48.192 117.82 47.928 117.26 47.4C116.716 46.856 116.444 46.088 116.444 45.096V30.48ZM123.221 44.28C123.221 43.464 123.445 42.752 123.893 42.144C124.357 41.52 124.997 41.04 125.813 40.704C126.629 40.368 127.565 40.2 128.621 40.2C129.149 40.2 129.685 40.24 130.229 40.32C130.773 40.4 131.245 40.528 131.645 40.704V40.032C131.645 39.232 131.405 38.616 130.925 38.184C130.461 37.752 129.765 37.536 128.837 37.536C128.149 37.536 127.493 37.656 126.869 37.896C126.245 38.136 125.589 38.488 124.901 38.952L123.869 36.84C124.701 36.296 125.549 35.888 126.413 35.616C127.293 35.344 128.213 35.208 129.173 35.208C130.965 35.208 132.357 35.656 133.349 36.552C134.357 37.448 134.861 38.728 134.861 40.392V44.4C134.861 44.736 134.917 44.976 135.029 45.12C135.157 45.264 135.357 45.352 135.629 45.384V48C135.341 48.048 135.077 48.088 134.837 48.12C134.613 48.152 134.421 48.168 134.261 48.168C133.621 48.168 133.133 48.024 132.797 47.736C132.477 47.448 132.277 47.096 132.197 46.68L132.125 46.032C131.581 46.736 130.901 47.28 130.085 47.664C129.269 48.048 128.437 48.24 127.589 48.24C126.757 48.24 126.005 48.072 125.333 47.736C124.677 47.384 124.157 46.912 123.773 46.32C123.405 45.712 123.221 45.032 123.221 44.28ZM131.045 44.928C131.221 44.736 131.365 44.544 131.477 44.352C131.589 44.16 131.645 43.984 131.645 43.824V42.552C131.261 42.392 130.845 42.272 130.397 42.192C129.949 42.096 129.525 42.048 129.125 42.048C128.293 42.048 127.605 42.232 127.061 42.6C126.533 42.952 126.269 43.424 126.269 44.016C126.269 44.336 126.357 44.64 126.533 44.928C126.709 45.216 126.965 45.448 127.301 45.624C127.637 45.8 128.037 45.888 128.501 45.888C128.981 45.888 129.453 45.8 129.917 45.624C130.381 45.432 130.757 45.2 131.045 44.928ZM137.662 50.448C137.95 50.512 138.214 50.568 138.454 50.616C138.71 50.664 138.926 50.688 139.102 50.688C139.406 50.688 139.654 50.608 139.846 50.448C140.054 50.304 140.254 50.032 140.446 49.632C140.638 49.248 140.838 48.704 141.046 48L136.078 35.424H139.414L142.798 44.712L145.774 35.424H148.846L143.566 50.496C143.374 51.056 143.078 51.56 142.678 52.008C142.294 52.472 141.806 52.832 141.214 53.088C140.638 53.36 139.99 53.496 139.27 53.496C139.014 53.496 138.758 53.472 138.502 53.424C138.246 53.392 137.966 53.328 137.662 53.232V50.448ZM167.893 45.096V48H156.061V30.96H167.677V33.864H159.373V37.968H166.549V40.656H159.373V45.096H167.893ZM173.36 48L168.728 35.424H172.064L175.232 45.072L178.424 35.424H181.472L176.864 48H173.36ZM188.581 48.24C187.573 48.24 186.661 48.072 185.845 47.736C185.029 47.384 184.333 46.912 183.757 46.32C183.181 45.712 182.733 45.024 182.413 44.256C182.109 43.472 181.957 42.648 181.957 41.784C181.957 40.584 182.221 39.488 182.749 38.496C183.293 37.504 184.061 36.712 185.053 36.12C186.061 35.512 187.245 35.208 188.605 35.208C189.981 35.208 191.157 35.512 192.133 36.12C193.109 36.712 193.853 37.504 194.365 38.496C194.893 39.472 195.157 40.528 195.157 41.664C195.157 41.856 195.149 42.056 195.133 42.264C195.117 42.456 195.101 42.616 195.085 42.744H185.365C185.429 43.384 185.613 43.944 185.917 44.424C186.237 44.904 186.637 45.272 187.117 45.528C187.613 45.768 188.141 45.888 188.701 45.888C189.341 45.888 189.941 45.736 190.501 45.432C191.077 45.112 191.469 44.696 191.677 44.184L194.437 44.952C194.133 45.592 193.693 46.16 193.117 46.656C192.557 47.152 191.893 47.544 191.125 47.832C190.357 48.104 189.509 48.24 188.581 48.24ZM185.293 40.704H191.869C191.805 40.064 191.621 39.512 191.317 39.048C191.029 38.568 190.645 38.2 190.165 37.944C189.685 37.672 189.149 37.536 188.557 37.536C187.981 37.536 187.453 37.672 186.973 37.944C186.509 38.2 186.125 38.568 185.821 39.048C185.533 39.512 185.357 40.064 185.293 40.704ZM208.804 48H205.588V40.944C205.588 39.936 205.412 39.2 205.06 38.736C204.708 38.272 204.22 38.04 203.596 38.04C203.164 38.04 202.724 38.152 202.276 38.376C201.844 38.6 201.452 38.912 201.1 39.312C200.748 39.696 200.492 40.144 200.332 40.656V48H197.116V35.424H200.02V37.752C200.34 37.208 200.748 36.752 201.244 36.384C201.74 36 202.308 35.712 202.948 35.52C203.604 35.312 204.292 35.208 205.012 35.208C205.796 35.208 206.436 35.352 206.932 35.64C207.444 35.912 207.828 36.288 208.084 36.768C208.356 37.232 208.54 37.76 208.636 38.352C208.748 38.944 208.804 39.544 208.804 40.152V48ZM219.066 47.352C218.794 47.464 218.466 47.592 218.082 47.736C217.698 47.88 217.282 47.992 216.834 48.072C216.402 48.168 215.962 48.216 215.514 48.216C214.922 48.216 214.378 48.112 213.882 47.904C213.386 47.696 212.986 47.368 212.682 46.92C212.394 46.456 212.25 45.856 212.25 45.12V37.896H210.594V35.424H212.25V31.344H215.466V35.424H218.106V37.896H215.466V44.04C215.482 44.472 215.602 44.784 215.826 44.976C216.05 45.168 216.33 45.264 216.666 45.264C217.002 45.264 217.33 45.208 217.65 45.096C217.97 44.984 218.226 44.888 218.418 44.808L219.066 47.352ZM227.751 30.96L232.359 44.064L236.919 30.96H240.399L233.943 48H230.751L224.271 30.96H227.751ZM241.905 48V35.424H245.121V48H241.905ZM241.905 33.672V30.48H245.121V33.672H241.905ZM247.255 41.712C247.255 40.496 247.495 39.4 247.975 38.424C248.455 37.432 249.119 36.648 249.967 36.072C250.815 35.496 251.783 35.208 252.871 35.208C253.799 35.208 254.631 35.44 255.367 35.904C256.119 36.352 256.703 36.928 257.119 37.632V30.48H260.335V44.4C260.335 44.736 260.391 44.976 260.503 45.12C260.615 45.264 260.807 45.352 261.079 45.384V48C260.519 48.112 260.063 48.168 259.711 48.168C259.135 48.168 258.655 48.024 258.271 47.736C257.903 47.448 257.695 47.072 257.647 46.608L257.599 45.816C257.135 46.6 256.503 47.2 255.703 47.616C254.919 48.032 254.095 48.24 253.231 48.24C252.367 48.24 251.567 48.072 250.831 47.736C250.111 47.4 249.479 46.936 248.935 46.344C248.407 45.752 247.991 45.064 247.687 44.28C247.399 43.48 247.255 42.624 247.255 41.712ZM257.119 43.392V40.392C256.959 39.928 256.703 39.512 256.351 39.144C255.999 38.776 255.607 38.488 255.175 38.28C254.743 38.056 254.311 37.944 253.879 37.944C253.383 37.944 252.935 38.048 252.535 38.256C252.135 38.464 251.783 38.744 251.479 39.096C251.191 39.448 250.967 39.856 250.807 40.32C250.663 40.784 250.591 41.272 250.591 41.784C250.591 42.296 250.671 42.784 250.831 43.248C251.007 43.696 251.255 44.088 251.575 44.424C251.895 44.76 252.263 45.024 252.679 45.216C253.111 45.408 253.575 45.504 254.071 45.504C254.375 45.504 254.679 45.456 254.983 45.36C255.303 45.248 255.599 45.104 255.871 44.928C256.159 44.736 256.407 44.512 256.615 44.256C256.839 43.984 257.007 43.696 257.119 43.392ZM269.323 48.24C268.315 48.24 267.403 48.072 266.587 47.736C265.771 47.384 265.075 46.912 264.499 46.32C263.923 45.712 263.475 45.024 263.155 44.256C262.851 43.472 262.699 42.648 262.699 41.784C262.699 40.584 262.963 39.488 263.491 38.496C264.035 37.504 264.803 36.712 265.795 36.12C266.803 35.512 267.987 35.208 269.347 35.208C270.723 35.208 271.899 35.512 272.875 36.12C273.851 36.712 274.595 37.504 275.107 38.496C275.635 39.472 275.899 40.528 275.899 41.664C275.899 41.856 275.891 42.056 275.875 42.264C275.859 42.456 275.843 42.616 275.827 42.744H266.107C266.171 43.384 266.355 43.944 266.659 44.424C266.979 44.904 267.379 45.272 267.859 45.528C268.355 45.768 268.883 45.888 269.443 45.888C270.083 45.888 270.683 45.736 271.243 45.432C271.819 45.112 272.211 44.696 272.419 44.184L275.179 44.952C274.875 45.592 274.435 46.16 273.859 46.656C273.299 47.152 272.635 47.544 271.867 47.832C271.099 48.104 270.251 48.24 269.323 48.24ZM266.035 40.704H272.611C272.547 40.064 272.363 39.512 272.059 39.048C271.771 38.568 271.387 38.2 270.907 37.944C270.427 37.672 269.891 37.536 269.299 37.536C268.723 37.536 268.195 37.672 267.715 37.944C267.251 38.2 266.867 38.568 266.563 39.048C266.275 39.512 266.099 40.064 266.035 40.704ZM283.667 48.24C282.643 48.24 281.723 48.072 280.907 47.736C280.091 47.384 279.395 46.904 278.819 46.296C278.259 45.688 277.827 44.992 277.523 44.208C277.219 43.424 277.067 42.6 277.067 41.736C277.067 40.856 277.219 40.024 277.523 39.24C277.827 38.456 278.259 37.76 278.819 37.152C279.395 36.544 280.091 36.072 280.907 35.736C281.723 35.384 282.643 35.208 283.667 35.208C284.691 35.208 285.603 35.384 286.403 35.736C287.219 36.072 287.915 36.544 288.491 37.152C289.067 37.76 289.499 38.456 289.787 39.24C290.091 40.024 290.243 40.856 290.243 41.736C290.243 42.6 290.091 43.424 289.787 44.208C289.499 44.992 289.067 45.688 288.491 46.296C287.931 46.904 287.243 47.384 286.427 47.736C285.611 48.072 284.691 48.24 283.667 48.24ZM280.379 41.736C280.379 42.472 280.523 43.128 280.811 43.704C281.099 44.264 281.491 44.704 281.987 45.024C282.483 45.344 283.043 45.504 283.667 45.504C284.275 45.504 284.827 45.344 285.323 45.024C285.819 44.688 286.211 44.24 286.499 43.68C286.803 43.104 286.955 42.448 286.955 41.712C286.955 40.992 286.803 40.344 286.499 39.768C286.211 39.192 285.819 38.744 285.323 38.424C284.827 38.104 284.275 37.944 283.667 37.944C283.043 37.944 282.483 38.112 281.987 38.448C281.491 38.768 281.099 39.216 280.811 39.792C280.523 40.352 280.379 41 280.379 41.736Z" fill="white"/>
</svg>
